<?xml version="1.0" encoding="UTF-8"?>
<!DOCTYPE svg PUBLIC "-//W3C//DTD SVG 1.1//EN" "http://www.w3.org/Graphics/SVG/1.1/DTD/svg11.dtd">
<svg xmlns="http://www.w3.org/2000/svg" version="1.1" width="512px" height="512px" style="shape-rendering:geometricPrecision; text-rendering:geometricPrecision; image-rendering:optimizeQuality; fill-rule:evenodd; clip-rule:evenodd" xmlns:xlink="http://www.w3.org/1999/xlink">
<g><path style="opacity:0.986" fill="#020202" d="M 511.5,437.5 C 511.5,441.833 511.5,446.167 511.5,450.5C 502.804,461.704 493.137,472.204 482.5,482C 475.173,486.728 468.007,486.561 461,481.5C 460.811,486.251 460.145,490.917 459,495.5C 458.097,496.701 456.931,497.535 455.5,498C 332.167,498.667 208.833,498.667 85.5,498C 82.8981,497.065 81.3981,495.232 81,492.5C 80.5,453.501 80.3333,414.501 80.5,375.5C 64.1535,373.474 56.4868,364.141 57.5,347.5C 53.419,345.882 50.2523,343.215 48,339.5C 45.3935,333.799 43.8935,327.799 43.5,321.5C 38.8062,318.973 35.3062,315.306 33,310.5C 31.7789,299.217 30.7789,287.883 30,276.5C 28.7407,265.796 26.0741,255.463 22,245.5C 16.3333,234.833 10.6667,224.167 5,213.5C 2.82215,207.476 0.988814,201.476 -0.5,195.5C -0.5,186.5 -0.5,177.5 -0.5,168.5C 8.81293,124.524 35.8129,99.5241 80.5,93.5C 80.3334,68.4978 80.5,43.4978 81,18.5C 81.3981,15.7683 82.8981,13.935 85.5,13C 189.5,12.3333 293.5,12.3333 397.5,13C 418,33.5 438.5,54 459,74.5C 459.333,75.5 459.667,76.5 460,77.5C 460.333,180.5 460.667,283.5 461,386.5C 476.807,402.396 492.807,418.063 509,433.5C 509.608,435.066 510.442,436.4 511.5,437.5 Z"/></g>
<g><path style="opacity:1" fill="#d0d0d5" d="M 120.5,28.5 C 120.5,52.1667 120.5,75.8333 120.5,99.5C 113.025,97.0861 105.358,95.4194 97.5,94.5C 97.5,72.5 97.5,50.5 97.5,28.5C 105.167,28.5 112.833,28.5 120.5,28.5 Z"/></g>
<g><path style="opacity:1" fill="#eaedef" d="M 120.5,28.5 C 208.833,28.5 297.167,28.5 385.5,28.5C 385.333,46.8364 385.5,65.1697 386,83.5C 387.214,85.0488 388.714,86.2155 390.5,87C 408.164,87.4999 425.83,87.6666 443.5,87.5C 443.833,182.001 443.499,276.335 442.5,370.5C 441.527,370.013 440.527,369.513 439.5,369C 434.449,368.508 429.449,368.508 424.5,369C 416.456,361.291 408.79,353.291 401.5,345C 426.755,297.733 423.588,252.566 392,209.5C 355.97,169.864 312.137,157.697 260.5,173C 211.484,193.523 185.817,230.356 183.5,283.5C 185.705,337.438 211.705,374.605 261.5,395C 294.64,405.829 326.64,403.162 357.5,387C 361.5,384.333 365.5,381.667 369.5,379C 370.5,378.333 371.5,378.333 372.5,379C 379.364,386.198 386.53,393.032 394,399.5C 392.209,407.252 393.709,414.252 398.5,420.5C 413.181,435.015 428.015,449.348 443,463.5C 443.499,469.491 443.666,475.491 443.5,481.5C 336.167,481.5 228.833,481.5 121.5,481.5C 121.5,436.167 121.5,390.833 121.5,345.5C 128.92,338.969 132.253,330.636 131.5,320.5C 137.743,317.347 141.576,312.347 143,305.5C 140.823,275.202 148.156,247.536 165,222.5C 183.564,182.656 177.397,147.156 146.5,116C 142.5,113 138.5,110 134.5,107C 129.613,104.726 124.946,102.226 120.5,99.5C 120.5,75.8333 120.5,52.1667 120.5,28.5 Z"/></g>
<g><path style="opacity:1" fill="#a297a2" d="M 402.5,41.5 C 412.167,50.5 421.5,59.8333 430.5,69.5C 421.014,70.4938 411.348,70.8271 401.5,70.5C 401.173,60.6522 401.506,50.9856 402.5,41.5 Z"/></g>
<g><path style="opacity:1" fill="#000000" d="M 200.5,70.5 C 247.168,70.3333 293.835,70.5 340.5,71C 343.366,72.3929 344.699,74.7262 344.5,78C 344.699,81.2738 343.366,83.6071 340.5,85C 293.833,85.6667 247.167,85.6667 200.5,85C 197.634,83.6071 196.301,81.2738 196.5,78C 196.43,74.6335 197.763,72.1335 200.5,70.5 Z"/></g>
<g><path style="opacity:1" fill="#736b73" d="M 402.5,41.5 C 401.506,50.9856 401.173,60.6522 401.5,70.5C 411.348,70.8271 421.014,70.4938 430.5,69.5C 431.289,69.7828 431.956,70.2828 432.5,71C 421.839,71.4998 411.172,71.6665 400.5,71.5C 400.168,61.1452 400.501,50.8119 401.5,40.5C 402.107,40.6236 402.44,40.9569 402.5,41.5 Z"/></g>
<g><path style="opacity:1" fill="#333334" d="M 443.5,87.5 C 444.832,182.001 444.832,276.668 443.5,371.5C 442.893,371.376 442.56,371.043 442.5,370.5C 443.499,276.335 443.833,182.001 443.5,87.5 Z"/></g>
<g><path style="opacity:1" fill="#88c7fb" d="M 105.5,112.5 C 130.898,122.231 148.231,139.898 157.5,165.5C 160.178,177.049 160.011,188.716 157,200.5C 150.272,214.956 143.272,229.289 136,243.5C 131.35,255.403 128.85,267.736 128.5,280.5C 122.167,280.5 115.833,280.5 109.5,280.5C 109.5,256.5 109.5,232.5 109.5,208.5C 121.96,211.004 132.46,207.671 141,198.5C 150.136,183.623 147.969,170.789 134.5,160C 117.333,151.672 104.166,155.839 95,172.5C 93.6226,179.076 93.1226,185.743 93.5,192.5C 89.5,192.5 85.5,192.5 81.5,192.5C 84.5763,175.816 78.5763,163.983 63.5,157C 46.8428,153.578 35.3428,159.745 29,175.5C 28.5243,200.183 40.691,211.183 65.5,208.5C 65.5,232.5 65.5,256.5 65.5,280.5C 59.1667,280.5 52.8333,280.5 46.5,280.5C 46.1503,267.736 43.6503,255.403 39,243.5C 33.4479,230.728 27.1146,218.395 20,206.5C 9.2207,169.577 19.7207,140.411 51.5,119C 68.7583,109.269 86.7583,107.102 105.5,112.5 Z"/></g>
<g><path style="opacity:1" fill="#010101" d="M 200.5,118.5 C 246.835,118.333 293.168,118.5 339.5,119C 344.224,121.435 345.724,125.269 344,130.5C 342.786,132.049 341.286,133.215 339.5,134C 293.167,134.667 246.833,134.667 200.5,134C 195.208,128.835 195.208,123.668 200.5,118.5 Z"/></g>
<g><path style="opacity:1" fill="#5bacee" d="M 105.5,112.5 C 128.17,118.326 144.336,131.993 154,153.5C 155.881,157.307 157.047,161.307 157.5,165.5C 148.231,139.898 130.898,122.231 105.5,112.5 Z"/></g>
<g><path style="opacity:1" fill="#87c5f9" d="M 51.5,171.5 C 56.7403,170.538 60.9069,172.205 64,176.5C 65.3967,181.708 65.8967,187.041 65.5,192.5C 60.4889,192.666 55.4889,192.499 50.5,192C 42.2797,184.72 42.613,177.887 51.5,171.5 Z"/></g>
<g><path style="opacity:1" fill="#87c5fa" d="M 116.5,171.5 C 129.42,172.058 133.087,178.058 127.5,189.5C 126.335,190.584 125.002,191.417 123.5,192C 118.845,192.499 114.179,192.666 109.5,192.5C 109.334,187.821 109.501,183.155 110,178.5C 111.694,175.642 113.861,173.309 116.5,171.5 Z"/></g>
<g><path style="opacity:1" fill="#f9dc74" d="M 285.5,182.5 C 338.846,179.072 376.012,201.739 397,250.5C 410.613,301.007 396.113,341.174 353.5,371C 303.924,396.266 260.091,388.766 222,348.5C 197.222,315.57 192.556,279.904 208,241.5C 224.484,209.512 250.317,189.845 285.5,182.5 Z"/></g>
<g><path style="opacity:1" fill="#040403" d="M 286.5,197.5 C 331.67,193.984 363.503,212.651 382,253.5C 393.29,289.505 385.79,321.005 359.5,348C 330.079,372.291 297.746,376.958 262.5,362C 226.159,341.488 210.326,310.322 215,268.5C 221.568,238.528 238.734,217.028 266.5,204C 273.22,201.636 279.887,199.469 286.5,197.5 Z"/></g>
<g><path style="opacity:1" fill="#70a3ce" d="M 92.5,280.5 C 92.5,256.833 92.5,233.167 92.5,209.5C 89.1667,209.5 85.8333,209.5 82.5,209.5C 82.5,233.167 82.5,256.833 82.5,280.5C 81.5024,256.672 81.1691,232.672 81.5,208.5C 85.5,208.5 89.5,208.5 93.5,208.5C 93.8309,232.672 93.4976,256.672 92.5,280.5 Z"/></g>
<g><path style="opacity:1" fill="#8ac9fe" d="M 92.5,280.5 C 89.1667,280.5 85.8333,280.5 82.5,280.5C 82.5,256.833 82.5,233.167 82.5,209.5C 85.8333,209.5 89.1667,209.5 92.5,209.5C 92.5,233.167 92.5,256.833 92.5,280.5 Z"/></g>
<g><path style="opacity:1" fill="#ebeef0" d="M 287.5,213.5 C 324.482,210.235 350.982,225.235 367,258.5C 377.468,293.762 367.968,322.262 338.5,344C 302.296,362.691 270.796,356.857 244,326.5C 229.923,305.86 226.59,283.527 234,259.5C 244.164,235.179 261.997,219.846 287.5,213.5 Z"/></g>
<g><path style="opacity:1" fill="#9ea0a2" d="M 126.5,303.5 C 126.5,301.5 126.5,299.5 126.5,297.5C 100.5,297.5 74.5,297.5 48.5,297.5C 48.5,299.5 48.5,301.5 48.5,303.5C 47.5318,301.393 47.1984,299.059 47.5,296.5C 74.1667,296.5 100.833,296.5 127.5,296.5C 127.802,299.059 127.468,301.393 126.5,303.5 Z"/></g>
<g><path style="opacity:1" fill="#ebeef0" d="M 126.5,303.5 C 126.586,304.496 126.252,305.329 125.5,306C 100.167,306.667 74.8333,306.667 49.5,306C 48.7476,305.329 48.4142,304.496 48.5,303.5C 48.5,301.5 48.5,299.5 48.5,297.5C 74.5,297.5 100.5,297.5 126.5,297.5C 126.5,299.5 126.5,301.5 126.5,303.5 Z"/></g>
<g><path style="opacity:1" fill="#c9c9ce" d="M 61.5,322.5 C 79.1667,322.5 96.8333,322.5 114.5,322.5C 115.006,326.007 114.34,329.174 112.5,332C 96.1667,332.667 79.8333,332.667 63.5,332C 61.6602,329.174 60.9935,326.007 61.5,322.5 Z"/></g>
<g><path style="opacity:1" fill="#d0d0d5" d="M 120.5,346.5 C 120.5,391.833 120.5,437.167 120.5,482.5C 112.833,482.5 105.167,482.5 97.5,482.5C 97.5,446.5 97.5,410.5 97.5,374.5C 112.951,371.636 119.618,362.303 117.5,346.5C 118.5,346.5 119.5,346.5 120.5,346.5 Z"/></g>
<g><path style="opacity:1" fill="#a9a9ad" d="M 74.5,348.5 C 83.5,348.5 92.5,348.5 101.5,348.5C 101.893,351.93 101.227,355.096 99.5,358C 91.8333,358.667 84.1667,358.667 76.5,358C 74.7732,355.096 74.1065,351.93 74.5,348.5 Z"/></g>
<g><path style="opacity:1" fill="#a195a1" d="M 390.5,359.5 C 397.776,365.603 404.942,371.936 412,378.5C 412.667,379.833 412.667,381.167 412,382.5C 409.936,385.274 407.436,387.107 404.5,388C 398,381.5 391.5,375 385,368.5C 384.333,367.5 384.333,366.5 385,365.5C 387.04,363.63 388.873,361.63 390.5,359.5 Z"/></g>
<g><path style="opacity:1" fill="#eeb782" d="M 432.5,383.5 C 433.239,383.369 433.906,383.536 434.5,384C 454.667,403.5 474.833,423 495,442.5C 495.667,443.5 495.667,444.5 495,445.5C 487.487,452.713 480.321,460.213 473.5,468C 472.5,468.667 471.5,468.667 470.5,468C 450.333,448.5 430.167,429 410,409.5C 409.333,408.5 409.333,407.5 410,406.5C 417.702,398.965 425.202,391.298 432.5,383.5 Z"/></g>
<g><path style="opacity:1" fill="#010101" d="M 200.5,431.5 C 246.835,431.333 293.168,431.5 339.5,432C 344.224,434.435 345.724,438.269 344,443.5C 342.786,445.049 341.286,446.215 339.5,447C 293.167,447.667 246.833,447.667 200.5,447C 195.208,441.835 195.208,436.668 200.5,431.5 Z"/></g>
<g><path style="opacity:1" fill="#dde0e2" d="M 121.5,345.5 C 121.5,390.833 121.5,436.167 121.5,481.5C 228.833,481.5 336.167,481.5 443.5,481.5C 336.001,482.499 228.335,482.833 120.5,482.5C 120.5,437.167 120.5,391.833 120.5,346.5C 120.5,345.833 120.833,345.5 121.5,345.5 Z"/></g>
</svg>
